<svg xmlns="http://www.w3.org/2000/svg" xmlns:xlink="http://www.w3.org/1999/xlink" width="500" zoomAndPan="magnify" viewBox="0 0 375 374.999991" height="500" preserveAspectRatio="xMidYMid meet" version="1.0"><defs><g/></defs><g fill="#000000" fill-opacity="1"><g transform="translate(11.995542, 212.858189)"><g><path d="M 5.515625 0 L 5.515625 -47.109375 L 21.765625 -47.109375 L 21.765625 -42.15625 L 21.953125 -42.15625 C 26.171875 -46.382812 30.671875 -48.5 35.453125 -48.5 C 38.878906 -48.5 42.09375 -47.789062 45.09375 -46.375 C 48.09375 -44.96875 50.359375 -42.796875 51.890625 -39.859375 C 56.671875 -45.617188 61.875 -48.5 67.5 -48.5 C 72.519531 -48.5 76.835938 -47.085938 80.453125 -44.265625 C 84.066406 -41.453125 85.875 -37.046875 85.875 -31.046875 L 85.875 0 L 69.625 0 L 69.625 -26.640625 C 69.625 -29.148438 68.929688 -31.242188 67.546875 -32.921875 C 66.171875 -34.609375 64.109375 -35.453125 61.359375 -35.453125 C 58.960938 -35.453125 57.132812 -34.734375 55.875 -33.296875 C 54.625 -31.859375 53.941406 -30.128906 53.828125 -28.109375 L 53.828125 0 L 37.5625 0 L 37.5625 -26.640625 C 37.5625 -29.148438 36.875 -31.242188 35.5 -32.921875 C 34.125 -34.609375 32.054688 -35.453125 29.296875 -35.453125 C 26.785156 -35.453125 24.898438 -34.671875 23.640625 -33.109375 C 22.390625 -31.546875 21.765625 -29.691406 21.765625 -27.546875 L 21.765625 0 Z M 5.515625 0 "/></g></g></g><g fill="#000000" fill-opacity="1"><g transform="translate(93.823917, 212.858189)"><g/></g></g><g fill="#000000" fill-opacity="1"><g transform="translate(110.262289, 212.858189)"><g><path d="M 8.71875 -5.828125 C 4.3125 -10.640625 2.109375 -16.535156 2.109375 -23.515625 C 2.109375 -30.492188 4.3125 -36.398438 8.71875 -41.234375 C 13.132812 -46.078125 18.738281 -48.5 25.53125 -48.5 C 31.78125 -48.5 36.925781 -46.535156 40.96875 -42.609375 L 40.96875 -47.109375 L 57.21875 -47.109375 L 57.21875 0 L 41.140625 0 L 41.140625 -5.328125 L 40.96875 -5.328125 C 36.925781 -0.859375 31.78125 1.375 25.53125 1.375 C 18.738281 1.375 13.132812 -1.023438 8.71875 -5.828125 Z M 22.546875 -31.5 C 20.429688 -29.414062 19.375 -26.75 19.375 -23.5 C 19.375 -20.257812 20.382812 -17.613281 22.40625 -15.5625 C 24.425781 -13.507812 27.09375 -12.484375 30.40625 -12.484375 C 33.582031 -12.484375 36.195312 -13.523438 38.25 -15.609375 C 40.300781 -17.691406 41.328125 -20.328125 41.328125 -23.515625 C 41.328125 -26.753906 40.269531 -29.414062 38.15625 -31.5 C 36.050781 -33.582031 33.46875 -34.625 30.40625 -34.625 C 27.28125 -34.625 24.660156 -33.582031 22.546875 -31.5 Z M 22.546875 -31.5 "/></g></g></g><g fill="#000000" fill-opacity="1"><g transform="translate(164.355017, 212.858189)"><g/></g></g><g fill="#000000" fill-opacity="1"><g transform="translate(180.793389, 212.858189)"><g><path d="M 8.265625 -47.109375 L 8.265625 -64.65625 L 24.515625 -64.65625 L 24.515625 -47.109375 L 34.4375 -47.109375 L 34.4375 -34.71875 L 24.515625 -34.71875 L 24.515625 -19.75 C 24.515625 -15.394531 25.742188 -13.21875 28.203125 -13.21875 C 28.804688 -13.21875 29.445312 -13.335938 30.125 -13.578125 C 30.800781 -13.828125 31.320312 -14.078125 31.6875 -14.328125 L 32.234375 -14.6875 L 36.28125 -1.5625 C 32.789062 0.394531 28.8125 1.375 24.34375 1.375 C 21.28125 1.375 18.644531 0.835938 16.4375 -0.234375 C 14.238281 -1.304688 12.570312 -2.742188 11.4375 -4.546875 C 10.300781 -6.347656 9.488281 -8.242188 9 -10.234375 C 8.507812 -12.222656 8.265625 -14.351562 8.265625 -16.625 L 8.265625 -34.71875 L 1.46875 -34.71875 L 1.46875 -47.109375 Z M 8.265625 -47.109375 "/></g></g></g><g fill="#000000" fill-opacity="1"><g transform="translate(208.436225, 212.858189)"><g/></g></g><g fill="#000000" fill-opacity="1"><g transform="translate(224.874609, 212.858189)"><g><path d="M 7.0625 -73.375 C 8.96875 -75.28125 11.234375 -76.234375 13.859375 -76.234375 C 16.492188 -76.234375 18.757812 -75.28125 20.65625 -73.375 C 22.5625 -71.476562 23.515625 -69.210938 23.515625 -66.578125 C 23.515625 -63.953125 22.5625 -61.6875 20.65625 -59.78125 C 18.757812 -57.882812 16.492188 -56.9375 13.859375 -56.9375 C 11.234375 -56.9375 8.96875 -57.882812 7.0625 -59.78125 C 5.164062 -61.6875 4.21875 -63.953125 4.21875 -66.578125 C 4.21875 -69.210938 5.164062 -71.476562 7.0625 -73.375 Z M 5.515625 -47.109375 L 5.515625 4.140625 C 5.515625 8.421875 4.015625 10.5625 1.015625 10.5625 C 0.398438 10.5625 -0.238281 10.453125 -0.90625 10.234375 C -1.582031 10.023438 -2.140625 9.796875 -2.578125 9.546875 L -3.125 9.1875 L -8.171875 22.3125 C -8.046875 22.375 -7.644531 22.554688 -6.96875 22.859375 C -6.300781 23.171875 -5.796875 23.398438 -5.453125 23.546875 C -5.117188 23.703125 -4.554688 23.898438 -3.765625 24.140625 C -2.972656 24.390625 -2.207031 24.578125 -1.46875 24.703125 C -0.738281 24.828125 0.175781 24.945312 1.28125 25.0625 C 2.382812 25.1875 3.550781 25.25 4.78125 25.25 C 7.84375 25.25 10.535156 24.710938 12.859375 23.640625 C 15.179688 22.578125 16.953125 21.140625 18.171875 19.328125 C 19.398438 17.523438 20.304688 15.628906 20.890625 13.640625 C 21.472656 11.648438 21.765625 9.519531 21.765625 7.25 L 21.765625 -47.109375 Z M 5.515625 -47.109375 "/></g></g></g><g fill="#000000" fill-opacity="1"><g transform="translate(243.517148, 212.858189)"><g/></g></g><g fill="#000000" fill-opacity="1"><g transform="translate(259.955532, 212.858189)"><g><path d="M 9.953125 -5.59375 C 4.722656 -10.25 2.109375 -16.21875 2.109375 -23.5 C 2.109375 -30.789062 4.832031 -36.78125 10.28125 -41.46875 C 15.726562 -46.15625 22.460938 -48.5 30.484375 -48.5 C 38.390625 -48.5 45.050781 -46.140625 50.46875 -41.421875 C 55.882812 -36.703125 58.59375 -30.726562 58.59375 -23.5 C 58.59375 -16.28125 55.941406 -10.328125 50.640625 -5.640625 C 45.347656 -0.960938 38.628906 1.375 30.484375 1.375 C 22.035156 1.375 15.191406 -0.945312 9.953125 -5.59375 Z M 22.546875 -31.5 C 20.429688 -29.414062 19.375 -26.75 19.375 -23.5 C 19.375 -20.257812 20.382812 -17.613281 22.40625 -15.5625 C 24.425781 -13.507812 27.09375 -12.484375 30.40625 -12.484375 C 33.582031 -12.484375 36.195312 -13.523438 38.25 -15.609375 C 40.300781 -17.691406 41.328125 -20.328125 41.328125 -23.515625 C 41.328125 -26.753906 40.269531 -29.414062 38.15625 -31.5 C 36.050781 -33.582031 33.46875 -34.625 30.40625 -34.625 C 27.28125 -34.625 24.660156 -33.582031 22.546875 -31.5 Z M 22.546875 -31.5 "/></g></g></g><g fill="#000000" fill-opacity="1"><g transform="translate(312.027795, 212.858189)"><g/></g></g><g fill="#000000" fill-opacity="1"><g transform="translate(328.466179, 212.858189)"><g><path d="M 15.984375 -19.65625 C 18.921875 -19.65625 21.414062 -18.628906 23.46875 -16.578125 C 25.519531 -14.523438 26.546875 -12.03125 26.546875 -9.09375 C 26.546875 -6.21875 25.519531 -3.753906 23.46875 -1.703125 C 21.414062 0.347656 18.921875 1.375 15.984375 1.375 C 13.109375 1.375 10.644531 0.347656 8.59375 -1.703125 C 6.539062 -3.753906 5.515625 -6.21875 5.515625 -9.09375 C 5.515625 -12.03125 6.539062 -14.523438 8.59375 -16.578125 C 10.644531 -18.628906 13.109375 -19.65625 15.984375 -19.65625 Z M 15.984375 -19.65625 "/></g></g></g><g fill="#000000" fill-opacity="1"><g transform="translate(16.428473, 230.851038)"><g><path d="M 12.421875 -9.859375 C 14.578125 -9.859375 15.65625 -8.515625 15.65625 -5.828125 L 15.65625 -0.890625 C 15.65625 -0.628906 15.570312 -0.414062 15.40625 -0.25 C 15.25 -0.0820312 15.039062 0 14.78125 0 C 14.53125 0 14.320312 -0.0820312 14.15625 -0.25 C 13.988281 -0.425781 13.90625 -0.640625 13.90625 -0.890625 L 13.90625 -5.796875 C 13.90625 -7.410156 13.222656 -8.21875 11.859375 -8.21875 C 11.378906 -8.21875 10.945312 -8.109375 10.5625 -7.890625 C 10.175781 -7.679688 9.875 -7.390625 9.65625 -7.015625 C 9.4375 -6.648438 9.328125 -6.242188 9.328125 -5.796875 L 9.328125 -0.890625 C 9.328125 -0.640625 9.242188 -0.425781 9.078125 -0.25 C 8.910156 -0.0820312 8.703125 0 8.453125 0 C 8.191406 0 7.976562 -0.0820312 7.8125 -0.25 C 7.65625 -0.414062 7.578125 -0.628906 7.578125 -0.890625 L 7.578125 -5.828125 C 7.578125 -6.546875 7.421875 -7.125 7.109375 -7.5625 C 6.804688 -8 6.296875 -8.21875 5.578125 -8.21875 C 4.847656 -8.21875 4.242188 -7.988281 3.765625 -7.53125 C 3.296875 -7.070312 3.0625 -6.503906 3.0625 -5.828125 L 3.0625 -0.890625 C 3.0625 -0.640625 2.976562 -0.425781 2.8125 -0.25 C 2.644531 -0.0820312 2.4375 0 2.1875 0 C 1.925781 0 1.710938 -0.0820312 1.546875 -0.25 C 1.390625 -0.414062 1.3125 -0.628906 1.3125 -0.890625 L 1.3125 -8.796875 C 1.3125 -9.046875 1.394531 -9.253906 1.5625 -9.421875 C 1.726562 -9.597656 1.9375 -9.6875 2.1875 -9.6875 C 2.4375 -9.6875 2.644531 -9.597656 2.8125 -9.421875 C 2.976562 -9.253906 3.0625 -9.046875 3.0625 -8.796875 L 3.0625 -8.15625 C 3.382812 -8.632812 3.8125 -9.035156 4.34375 -9.359375 C 4.882812 -9.691406 5.46875 -9.859375 6.09375 -9.859375 C 7.625 -9.859375 8.617188 -9.175781 9.078125 -7.8125 C 9.347656 -8.332031 9.796875 -8.800781 10.421875 -9.21875 C 11.054688 -9.644531 11.722656 -9.859375 12.421875 -9.859375 Z M 12.421875 -9.859375 "/></g></g></g><g fill="#000000" fill-opacity="1"><g transform="translate(45.439961, 230.851038)"><g><path d="M 9.171875 -9.8125 C 9.429688 -9.8125 9.644531 -9.726562 9.8125 -9.5625 C 9.976562 -9.394531 10.0625 -9.175781 10.0625 -8.90625 L 10.0625 -0.890625 C 10.0625 -0.640625 9.976562 -0.425781 9.8125 -0.25 C 9.644531 -0.0820312 9.429688 0 9.171875 0 C 8.910156 0 8.695312 -0.0820312 8.53125 -0.25 C 8.375 -0.414062 8.296875 -0.628906 8.296875 -0.890625 L 8.296875 -1.375 C 7.972656 -0.9375 7.535156 -0.566406 6.984375 -0.265625 C 6.429688 0.0351562 5.832031 0.1875 5.1875 0.1875 C 4.351562 0.1875 3.59375 -0.0234375 2.90625 -0.453125 C 2.226562 -0.890625 1.691406 -1.492188 1.296875 -2.265625 C 0.910156 -3.035156 0.71875 -3.898438 0.71875 -4.859375 C 0.71875 -5.816406 0.910156 -6.679688 1.296875 -7.453125 C 1.691406 -8.222656 2.226562 -8.820312 2.90625 -9.25 C 3.582031 -9.6875 4.328125 -9.90625 5.140625 -9.90625 C 5.796875 -9.90625 6.398438 -9.769531 6.953125 -9.5 C 7.515625 -9.226562 7.960938 -8.882812 8.296875 -8.46875 L 8.296875 -8.90625 C 8.296875 -9.164062 8.375 -9.378906 8.53125 -9.546875 C 8.695312 -9.722656 8.910156 -9.8125 9.171875 -9.8125 Z M 5.390625 -1.4375 C 5.972656 -1.4375 6.488281 -1.582031 6.9375 -1.875 C 7.382812 -2.175781 7.734375 -2.582031 7.984375 -3.09375 C 8.242188 -3.613281 8.375 -4.203125 8.375 -4.859375 C 8.375 -5.503906 8.242188 -6.082031 7.984375 -6.59375 C 7.734375 -7.113281 7.382812 -7.523438 6.9375 -7.828125 C 6.488281 -8.128906 5.972656 -8.28125 5.390625 -8.28125 C 4.816406 -8.28125 4.300781 -8.128906 3.84375 -7.828125 C 3.394531 -7.535156 3.046875 -7.128906 2.796875 -6.609375 C 2.546875 -6.097656 2.421875 -5.515625 2.421875 -4.859375 C 2.421875 -4.203125 2.546875 -3.613281 2.796875 -3.09375 C 3.046875 -2.582031 3.394531 -2.175781 3.84375 -1.875 C 4.300781 -1.582031 4.816406 -1.4375 5.390625 -1.4375 Z M 5.390625 -1.4375 "/></g></g></g><g fill="#000000" fill-opacity="1"><g transform="translate(68.835384, 230.851038)"><g><path d="M 9.21875 -1.53125 C 9.40625 -1.332031 9.5 -1.117188 9.5 -0.890625 C 9.5 -0.640625 9.398438 -0.429688 9.203125 -0.265625 C 9.015625 -0.0976562 8.816406 -0.015625 8.609375 -0.015625 C 8.335938 -0.015625 8.125 -0.113281 7.96875 -0.3125 L 4.328125 -4.171875 L 3.21875 -3.171875 L 3.21875 -0.890625 C 3.21875 -0.640625 3.132812 -0.425781 2.96875 -0.25 C 2.800781 -0.0820312 2.59375 0 2.34375 0 C 2.082031 0 1.867188 -0.0820312 1.703125 -0.25 C 1.535156 -0.425781 1.453125 -0.640625 1.453125 -0.890625 L 1.453125 -12.796875 C 1.453125 -13.035156 1.535156 -13.238281 1.703125 -13.40625 C 1.867188 -13.582031 2.082031 -13.671875 2.34375 -13.671875 C 2.59375 -13.671875 2.800781 -13.582031 2.96875 -13.40625 C 3.132812 -13.238281 3.21875 -13.035156 3.21875 -12.796875 L 3.21875 -5.28125 L 7.75 -9.453125 C 7.957031 -9.628906 8.171875 -9.71875 8.390625 -9.71875 C 8.597656 -9.71875 8.785156 -9.628906 8.953125 -9.453125 C 9.128906 -9.273438 9.21875 -9.085938 9.21875 -8.890625 C 9.21875 -8.640625 9.101562 -8.414062 8.875 -8.21875 L 5.671875 -5.375 Z M 9.21875 -1.53125 "/></g></g></g><g fill="#000000" fill-opacity="1"><g transform="translate(91.140836, 230.851038)"><g><path d="M 9.8125 -5.21875 C 9.800781 -4.988281 9.707031 -4.796875 9.53125 -4.640625 C 9.363281 -4.492188 9.160156 -4.421875 8.921875 -4.421875 L 2.421875 -4.421875 C 2.503906 -3.515625 2.84375 -2.789062 3.4375 -2.25 C 4.039062 -1.707031 4.773438 -1.4375 5.640625 -1.4375 C 6.234375 -1.4375 6.710938 -1.519531 7.078125 -1.6875 C 7.453125 -1.863281 7.78125 -2.085938 8.0625 -2.359375 C 8.25 -2.472656 8.425781 -2.53125 8.59375 -2.53125 C 8.800781 -2.53125 8.972656 -2.457031 9.109375 -2.3125 C 9.253906 -2.164062 9.328125 -1.992188 9.328125 -1.796875 C 9.328125 -1.535156 9.207031 -1.300781 8.96875 -1.09375 C 8.601562 -0.726562 8.125 -0.421875 7.53125 -0.171875 C 6.945312 0.0664062 6.347656 0.1875 5.734375 0.1875 C 4.734375 0.1875 3.851562 -0.0195312 3.09375 -0.4375 C 2.332031 -0.863281 1.742188 -1.453125 1.328125 -2.203125 C 0.921875 -2.953125 0.71875 -3.800781 0.71875 -4.75 C 0.71875 -5.78125 0.929688 -6.6875 1.359375 -7.46875 C 1.785156 -8.257812 2.34375 -8.863281 3.03125 -9.28125 C 3.726562 -9.695312 4.476562 -9.90625 5.28125 -9.90625 C 6.070312 -9.90625 6.8125 -9.703125 7.5 -9.296875 C 8.195312 -8.890625 8.753906 -8.328125 9.171875 -7.609375 C 9.585938 -6.898438 9.800781 -6.101562 9.8125 -5.21875 Z M 5.28125 -8.28125 C 4.59375 -8.28125 3.992188 -8.082031 3.484375 -7.6875 C 2.984375 -7.300781 2.65625 -6.703125 2.5 -5.890625 L 7.953125 -5.890625 L 7.953125 -6.046875 C 7.890625 -6.703125 7.59375 -7.238281 7.0625 -7.65625 C 6.539062 -8.070312 5.945312 -8.28125 5.28125 -8.28125 Z M 5.28125 -8.28125 "/></g></g></g><g fill="#000000" fill-opacity="1"><g transform="translate(113.723388, 230.851038)"><g><path d="M 8.515625 -9.6875 C 8.773438 -9.6875 8.988281 -9.597656 9.15625 -9.421875 C 9.320312 -9.253906 9.40625 -9.046875 9.40625 -8.796875 L 9.40625 -3.875 C 9.40625 -2.59375 9.050781 -1.597656 8.34375 -0.890625 C 7.632812 -0.179688 6.632812 0.171875 5.34375 0.171875 C 4.0625 0.171875 3.066406 -0.179688 2.359375 -0.890625 C 1.660156 -1.597656 1.3125 -2.59375 1.3125 -3.875 L 1.3125 -8.796875 C 1.3125 -9.046875 1.394531 -9.253906 1.5625 -9.421875 C 1.726562 -9.597656 1.9375 -9.6875 2.1875 -9.6875 C 2.4375 -9.6875 2.644531 -9.597656 2.8125 -9.421875 C 2.976562 -9.253906 3.0625 -9.046875 3.0625 -8.796875 L 3.0625 -3.875 C 3.0625 -2.257812 3.820312 -1.453125 5.34375 -1.453125 C 6.09375 -1.453125 6.664062 -1.65625 7.0625 -2.0625 C 7.457031 -2.476562 7.65625 -3.082031 7.65625 -3.875 L 7.65625 -8.796875 C 7.65625 -9.046875 7.738281 -9.253906 7.90625 -9.421875 C 8.070312 -9.597656 8.273438 -9.6875 8.515625 -9.6875 Z M 8.515625 -9.6875 "/></g></g></g><g fill="#000000" fill-opacity="1"><g transform="translate(136.490681, 230.851038)"><g><path d="M 6.171875 -9.859375 C 7.015625 -9.859375 7.773438 -9.644531 8.453125 -9.21875 C 9.128906 -8.789062 9.660156 -8.191406 10.046875 -7.421875 C 10.429688 -6.660156 10.625 -5.800781 10.625 -4.84375 C 10.625 -3.882812 10.429688 -3.023438 10.046875 -2.265625 C 9.660156 -1.503906 9.128906 -0.90625 8.453125 -0.46875 C 7.773438 -0.0390625 7.023438 0.171875 6.203125 0.171875 C 5.566406 0.171875 4.972656 0.03125 4.421875 -0.25 C 3.867188 -0.539062 3.414062 -0.890625 3.0625 -1.296875 L 3.0625 2.8125 C 3.0625 3.050781 2.976562 3.257812 2.8125 3.4375 C 2.644531 3.613281 2.4375 3.703125 2.1875 3.703125 C 1.9375 3.703125 1.726562 3.617188 1.5625 3.453125 C 1.394531 3.285156 1.3125 3.070312 1.3125 2.8125 L 1.3125 -8.8125 C 1.3125 -9.070312 1.390625 -9.285156 1.546875 -9.453125 C 1.710938 -9.628906 1.925781 -9.71875 2.1875 -9.71875 C 2.4375 -9.71875 2.644531 -9.628906 2.8125 -9.453125 C 2.976562 -9.285156 3.0625 -9.070312 3.0625 -8.8125 L 3.0625 -8.28125 C 3.363281 -8.707031 3.796875 -9.078125 4.359375 -9.390625 C 4.929688 -9.703125 5.535156 -9.859375 6.171875 -9.859375 Z M 5.96875 -1.453125 C 6.539062 -1.453125 7.050781 -1.597656 7.5 -1.890625 C 7.957031 -2.191406 8.3125 -2.597656 8.5625 -3.109375 C 8.820312 -3.617188 8.953125 -4.195312 8.953125 -4.84375 C 8.953125 -5.476562 8.820312 -6.050781 8.5625 -6.5625 C 8.3125 -7.082031 7.957031 -7.488281 7.5 -7.78125 C 7.050781 -8.070312 6.539062 -8.21875 5.96875 -8.21875 C 5.394531 -8.21875 4.878906 -8.070312 4.421875 -7.78125 C 3.960938 -7.5 3.601562 -7.097656 3.34375 -6.578125 C 3.09375 -6.054688 2.96875 -5.476562 2.96875 -4.84375 C 2.96875 -4.195312 3.09375 -3.613281 3.34375 -3.09375 C 3.601562 -2.582031 3.960938 -2.179688 4.421875 -1.890625 C 4.878906 -1.597656 5.394531 -1.453125 5.96875 -1.453125 Z M 5.96875 -1.453125 "/></g></g></g></svg>